<?xml version="1.0" encoding="utf-8"?>
<!-- Generator: Adobe Illustrator 25.0.1, SVG Export Plug-In . SVG Version: 6.00 Build 0)  -->
<svg version="1.0" id="katman_1" xmlns="http://www.w3.org/2000/svg" xmlns:xlink="http://www.w3.org/1999/xlink" x="0px" y="0px"
	 viewBox="0 0 800 600" style="enable-background:new 0 0 800 600;" xml:space="preserve">
<g>
	<path d="M429.4,260.9h21.1l-32.1,107.3h-30l-32-107.3h21.1l25.9,89.4L429.4,260.9z M509,368.2h-16l-1.5-5.3
		c-6.9,4.5-15.1,6.9-23.3,6.9c-14.3,0-20.5-9.8-20.5-23.4c0-16,6.9-22.1,22.9-22.1h18.9v-8.3c0-8.7-2.4-11.8-15-11.8
		c-7.3,0.1-14.6,0.9-21.7,2.4l-2.4-15c8.8-2.4,17.8-3.7,26.9-3.7c24.6,0,32,8.7,32,28.4L509,368.2z M489.4,338.6h-14.5
		c-6.4,0-8.2,1.8-8.2,7.8c0,5.3,1.8,8,8,8c5.2-0.1,10.3-1.5,14.8-4L489.4,338.6z M539.9,289.7v54.7c0,4.2,1.8,6.3,6.3,6.3
		c4.5,0,13.3-2.9,20.4-6.6v-54.4h19.6v78.5h-15l-1.9-6.6c-9.8,4.9-20.5,7.7-31.4,8.2c-13,0-17.7-9.2-17.7-23.2v-56.9H539.9z
		 M596.8,368.2V257.7l19.6-2.7v113.2H596.8z M675,366.7c-5.5,1.9-11.4,3-17.2,3.1c-14.3,0-21.6-6.8-21.6-20.8v-43.7h-11.7v-15.6
		h11.7v-19.5l19.6-2.7v22.2H676l-1.3,15.6h-18.9v41c-0.4,3,1.4,5.8,4.3,6.7c0.9,0.3,1.9,0.4,2.8,0.2c3.3-0.1,6.6-0.7,9.8-1.6
		L675,366.7z M123.6,231.4l84.8,170.2l85.4-170.2H123.6z M218.5,265.5h9.9v9.9h-9.9V265.5z M198.8,305H189v-9.8h9.8V305z
		 M198.8,290.2H189v-9.8h9.8V290.2z M198.8,275.4H189v-9.9h9.8V275.4z M213.7,319.8h-9.8v-9.9h9.8V319.8z M213.7,305h-9.8v-9.8h9.8
		V305z M213.7,290.2h-9.8v-9.8h9.8V290.2z M213.7,275.4h-9.8v-9.9h9.8V275.4z M218.5,280.4h9.9v9.8h-9.9V280.4z M218.5,305v-9.8h9.9
		v9.8H218.5z M377.3,234.6v-15h-13.8v15h-7v-36.2h7v15.2h13.8v-15.2h7v36.2H377.3z M410.1,234.6h-5.6l-0.5-1.8
		c-2.4,1.5-5.2,2.3-8,2.3c-5,0-7.1-3.2-7.1-7.8c0-5.3,2.4-7.3,8-7.3h6.5v-2.7c0-2.9-0.9-3.9-5.2-3.9c-2.5,0-5.1,0.3-7.5,0.8l-0.8-5
		c3-0.8,6.2-1.2,9.3-1.2c8.5,0,11.1,2.9,11.1,9.4L410.1,234.6z M403.3,224.7h-5c-2.2,0-2.9,0.6-2.9,2.7s0.6,2.7,2.7,2.7
		c1.8,0,3.6-0.5,5.1-1.3L403.3,224.7z M424.3,235.1c-3.2,0-6.3-0.6-9.4-1.5l0.9-5c2.6,0.7,5.3,1.1,8,1.1c3,0,3.5-0.6,3.5-2.7
		c0-2-0.3-2.4-4.7-3.4c-6.6-1.6-7.4-3.2-7.4-8.2s2.4-7.6,10.2-7.6c2.7,0,5.5,0.3,8.2,0.9l-0.7,5.3c-2.5-0.4-5-0.7-7.5-0.7
		c-3,0-3.5,0.6-3.5,2.3c0,2.1,0.2,2.2,3.8,3.2c7.6,1.9,8.3,2.9,8.3,8.2C434.1,232.4,432.5,235.1,424.3,235.1L424.3,235.1z
		 M455.5,234.6v-18.1c0-1.4-0.6-2.1-2.2-2.1c-2.5,0.3-4.9,1-7.1,2.2v18.1h-6.8v-36.8l6.8,1v11.6c3.1-1.5,6.5-2.4,10-2.5
		c4.5,0,6.1,3.1,6.1,7.7v18.9L455.5,234.6z M468,204.8v-6.3h6.8v6.4L468,204.8z M468,234.6v-26.1h6.8v26.1H468z M480.3,208.7
		c0-6.5,4-10.3,13.3-10.3c3.4,0,6.8,0.4,10.1,1.2l-0.8,5.8c-3-0.5-6-0.8-9.1-0.9c-4.9,0-6.4,1.6-6.4,5.3v13.7c0,3.8,1.5,5.3,6.4,5.3
		c3.1-0.1,6.1-0.4,9.1-0.9l0.8,5.8c-3.3,0.8-6.7,1.2-10.1,1.2c-9.2,0-13.3-3.8-13.3-10.3V208.7z M518.6,235.1
		c-9.3,0-11.9-4.9-11.9-10.3v-6.6c0-5.3,2.7-10.3,11.9-10.3c9.2,0,11.9,4.9,11.9,10.3v6.6C530.6,230.2,527.9,235.1,518.6,235.1
		L518.6,235.1z M518.6,213.5c-3.6,0-5,1.6-5,4.5v7c0,3,1.4,4.5,5,4.5c3.6,0,5-1.6,5-4.5v-7C523.7,215.1,522.3,213.5,518.6,213.5
		L518.6,213.5z M549.6,213.9c-2.5,1.1-4.9,2.4-7.2,3.8v16.8h-6.8v-26.1h5.8l0.4,2.9c2.2-1.4,4.6-2.6,7.2-3.4L549.6,213.9z
		 M576.8,225.9c0,5.8-2.7,9.2-9,9.2c-2.4,0-4.9-0.3-7.3-0.7V245l-6.8,1v-37.5h5.3l0.7,2.2c2.5-1.8,5.5-2.7,8.6-2.7
		c5.3,0,8.4,3.1,8.4,9.1L576.8,225.9z M560.6,228.8c2,0.4,4,0.7,6,0.7c2.5,0,3.4-1.1,3.4-3.5v-9.2c0-2.1-0.8-3.3-3.3-3.3
		c-2.2,0.1-4.4,0.9-6.1,2.4V228.8z M560.6,228.8"/>
</g>
</svg>
